/* XPM */
static char *exit[] = {
/* columns rows colors chars-per-pixel */
"64 64 190 2 ",
"   c #000307",
".  c #00070B",
"X  c #01090E",
"o  c #180B0D",
"O  c #050C11",
"+  c #090E12",
"@  c #120E13",
"#  c #180E12",
"$  c #0D1014",
"%  c #151014",
"&  c #1C1214",
"*  c #2A0F12",
"=  c #221215",
"-  c #2C1516",
";  c #2D1818",
":  c #2A1618",
">  c #311617",
",  c #381917",
"<  c #321A18",
"1  c #3B1A19",
"2  c #351719",
"3  c #211F27",
"4  c #2A232B",
"5  c #2C2935",
"6  c #2A2632",
"7  c #332B35",
"8  c #3B2F38",
"9  c #372F3A",
"0  c #3E3039",
"q  c #401518",
"w  c #431B1A",
"e  c #4C1D1B",
"r  c #441314",
"t  c #541E1C",
"y  c #5C1C1B",
"u  c #551A17",
"i  c #611817",
"p  c #6A1E1E",
"a  c #7B1F1B",
"s  c #5B221E",
"d  c #51221C",
"f  c #64231E",
"g  c #6C241E",
"h  c #68281E",
"j  c #73261F",
"k  c #5F3029",
"l  c #6B2421",
"z  c #6C2B21",
"x  c #722720",
"c  c #7C2421",
"v  c #762A22",
"b  c #7C2B23",
"n  c #6F3327",
"m  c #6F3A30",
"M  c #493B47",
"N  c #55414D",
"B  c #684D5C",
"V  c #95211E",
"C  c #A9261E",
"Z  c #842E25",
"A  c #8A2E24",
"S  c #842524",
"D  c #962C25",
"F  c #9C2A26",
"G  c #9B2A28",
"H  c #972622",
"J  c #8C3325",
"K  c #9C3427",
"L  c #9D3828",
"P  c #963328",
"I  c #9E3233",
"U  c #A32621",
"Y  c #A52A24",
"T  c #AB2C24",
"R  c #A42D2A",
"E  c #AA2E29",
"W  c #B22E26",
"Q  c #B12F2B",
"!  c #A43327",
"~  c #A6302C",
"^  c #AB322C",
"/  c #A13A29",
"(  c #AE3D2B",
")  c #B33127",
"_  c #B4342C",
"`  c #BB362A",
"'  c #B33B2C",
"]  c #BD3A2D",
"[  c #BB3527",
"{  c #A43332",
"}  c #AA3532",
"|  c #AA3936",
" . c #A53C3D",
".. c #AA3C3B",
"X. c #B43A32",
"o. c #B83E35",
"O. c #C03527",
"+. c #C43C2D",
"@. c #CA3E2D",
"#. c #C3362D",
"$. c #D33E2F",
"%. c #C83B32",
"&. c #8E4033",
"*. c #B4412C",
"=. c #BD422D",
"-. c #AE413F",
";. c #C4422E",
":. c #CE422E",
">. c #D3432E",
",. c #D9422F",
"<. c #CD4331",
"1. c #C74533",
"2. c #D54530",
"3. c #DD4630",
"4. c #D64932",
"5. c #DC4A32",
"6. c #D04F3D",
"7. c #D1533E",
"8. c #E14631",
"9. c #E24C33",
"0. c #EA4C33",
"q. c #E24F38",
"w. c #F14F34",
"e. c #EC5135",
"r. c #E5513A",
"t. c #F65436",
"y. c #F95537",
"u. c #FF5738",
"i. c #A54244",
"p. c #A94345",
"a. c #A74648",
"s. c #AA4749",
"d. c #A6494E",
"f. c #A94A4D",
"g. c #B14C4A",
"h. c #B34946",
"j. c #A44D54",
"k. c #AA4D52",
"l. c #B24F53",
"z. c #AA5156",
"x. c #A75259",
"c. c #AA555C",
"v. c #B35658",
"b. c #845F6F",
"n. c #A65761",
"m. c #A65B66",
"M. c #A95A63",
"N. c #A75D69",
"B. c #B65E64",
"V. c #906373",
"C. c #A7616F",
"Z. c #AA626D",
"A. c #B96A6D",
"S. c #A66574",
"D. c #A96572",
"F. c #A86877",
"G. c #A66B7C",
"H. c #A86A7A",
"J. c #B06E79",
"K. c #AE717C",
"L. c #D55B46",
"P. c #D85540",
"I. c #E15F4A",
"U. c #DB634E",
"Y. c #F46A4F",
"T. c #E96D56",
"R. c #F0725B",
"E. c #FA7D64",
"W. c #9F7288",
"Q. c #9E7287",
"!. c #A66E81",
"~. c #A86E80",
"^. c #A67185",
"/. c #AB7383",
"(. c #A5768C",
"). c #A9778B",
"_. c #A6788E",
"`. c #AE7E8E",
"'. c #B17F8E",
"]. c #A67B93",
"[. c #AE7C93",
"{. c #A57F99",
"}. c #B17D94",
"|. c #B3828E",
" X c #A98097",
".X c #A6819B",
"XX c #AA849B",
"oX c #B58593",
"OX c #BF8EA8",
"+X c #BB87A0",
/* pixels */
"(.(.(.(.(.(.(.(._.(.(.(.(.(.(.(.(.(.(.(.(.(.(.(.(.(.(.(.(.(.(.(.(.(.(.(.(.(.(.(.(._.(.(.(.(.(.(.(.(.(.(.(.(.(.(.(.(.(.(.(.(.(.(.",
"(.(.(.(.(.(.(.(.(.(.).(.(.(.(._.(.(.(.(.(._.(.(.(.(.(.(.(.(.(.(.(.(.(.(.[.(.(.(.(.(.(.(.(.(.(.(.(.).(._.(.(.(.(.(._.(.(.).(.(._.",
"(.(.(.(.(.(.(.(.(.(.(.(.(.).(.(.(.(.(.(.].(.(.(.(.(.(.(.).(.(.(.(.(.(.(.(.(.(.(.(.(.(.(._._.(.(.(.(.(.(.(.(.(._.).(.(.)._.(.(._.",
"(.(.(.(.(.(.(.(.(._.(.(.(.(.(._.(.(.(.(.(.(.(.(.(.(.(.(.(.(.(.(.(._.(._.(.(.(.(.(.(.(.(.(.(.(.(.(.].(.(.(.(.(.(.(.(._.(.)._.(.(.",
"(.(.(.(.(.(.(.(.).).(.(.(.(.).(.(.(.(.(.(.(.(.(.(.(.(._.].(.(.(.(.(.(._.(.(.(.(.(.(.(.(._.(._.(.(._.(.(.(.(.(.(.(.(.(.(.(.].(.(.",
"(.(.(.(.(.).(.(.).(.(.(.(.(.(.(.(.(.(.(.(.).(.(.(.(._.C.x.].(.(.(.(.(.(.(.(.(.(.(.(.(.(.(.(.(.(.(.).(.(.(.(.(.(.)._.(.).(.(.(.).",
"(.(.(.(.(.(.(.(.(.(._.).(.(.(.(.(.(.(.(.(.(.(.(.(.(.[.N.-.C.(.(.(.(.(.(._.(.(.(.(.(.).(.)._.(.(.(.(.(.(.(.(.(.(.(.(.(.(.).(.(.(.",
"(.(.(.(.(.(.(.(.(.(.(.(.(.(.(.(._.(.(.(.(.(.(.(.(.(.(._.~.Y M.).(.(.(.(.(.(.(.(.(.(.).(.(.(.(.(._.(.(.(.(.(.(.(.(.(.(.(.(.(.(.(.",
"(.(.(.(.(.(.(.(.(.(.(.(.(.(.)._.(._.(.(.(.(.(.(.(.(.(.].F.} T Z.].(.(.(.(.(.(.(.(.(.(.(.(.(.(.(.(.(.(.(.(.(.(.(._.(.(.(.(.(._.(.",
"(.(.(.(.(.(.(.(.(.(.(.(.(.(.(._.(._.(.(.(.(.(.(.(.(.(.(.(.F.^ } M.{.(.(._.(.(.(.(.(.(.(.(._._.(.(.(.(.(.(.(.(.(.(.(.(.(.(.(.(.(.",
"(.(.(.(.(.(.(.(.(.(.(.(._.(.(.(.(.(.(.(.(.(.(.(.(.(.(.(.(.^.} Y ..M.(.(._.(.(.(.(.(.(.(.(.(.(._.(.(.(.(.(.(.(.(.).(.(.(.(.(.(.(.",
"(.(.(.(.(.(.(.(.(.(.(.).(.(._.(.(.(.(.(.(.(.(.(.(.(.(.(.(.!.{ ~ Q } (.(.(.).).]._._.(._.(.(.(.(.(.(.(.(.(.(.(.(.(.(.(.).(.(.(.(.",
"(.(.(.(.(.(.(.(.(.(.(._.(.(.(.(.(.(.(.(.(.(.(._.(.(.(.(.(.^.} ^ R ..(.(.(._.~.S.(.(.(.(.(.(.(.(.(.(.(.(.(.(.(.(.(.(.(.(.(.(.(.(.",
"(.(.(.(.(.(.(.(.(.(.(.(.(.(.(.(.(.(.(.(.(.(.^.~.(.(.(.(.(.^.} ` _ | H.(.(.].C.E !.(.(.(.(.(.(.(.(.(.(.(.(.(.(.(.[.(.(.(.(.(.(.(.",
"(.(.(.(.(.(.(.(.(.(.(.(.(.(.(.(.(.(.(.(.(.].z...].(.(.(._.^.{ :.%.^ } ~._._.C.} ^._._.(.(.(.(.(.(.(.(.(.(.(.(.(.(.(.(.(.(.(.[.(.",
"(.(.(.(.(.(.(.(.(.(.(.).(.(.(.(.(.(.(.(.(.(.G.n.i.^.(.(.G.| @.3.%.R ^ ~.].M.^ E !._.(.(.(.(.(.(.(.(.(.(.(.(.(.(.(.).(.(.(.(.(.(.",
"(.(.(.(.(.(.(.(.(.(.(.(.(.(.(.(.(.(.(.).(.(.].!.R ^.(._.^.Y <.5.+.E ^ F.{.k.^ N.^.(.(.).(.(.(.(.(.(.(.[._.(.(.(.(.(.(.).(.(.(.(.",
"(.(.(.(.(.(.(.(.(.(.(.(.(.(.(.(.(.(.(.(.(._.~.d.E ^.]./.g.^ <.2.+.^ ^ S.].Z.m.{.(.].(._.(.(.(.).(.(.(.(.(.(.(.(.(.(._.)._.(.(.(.",
"(.(.(.(.(.(.(.(.(.(.(.(.(.(.(.(.(.(.(.(.(.^.d.Y p.G.).x.T ] <.2.' G ^ S.].].].(.(.^.G._.(.(.(.(.(.(.(.(.(.(.(.(.(.).(.(.).(.(.(.",
"(.(.(.(.(.(.(.(.(.(.(.(.(.(.(.(.(.(.(.^.].d.Y i.].].z.Y ^ @.;.8.x = _ F.].(.(._.].i.j.].).(.(.(.(.(.(.(.(.(.(.(.(.(.(.(.(.(.(.(.",
"(.(.(.(.(.(.(.(.(.(.(.(.(.(.(.(.(.(.(.(.s.} E  ._.].z.Y ^ @.7.5.l & _ | G.].]._..Xp.z. X^.(.).(.).(.(.(.(.(._.(.(._.(.(.(.(.(.(.",
"(.(.(.(.(.(.(.(.(.(.(.(.(.(.(.(.(.].^.p.^ E p.~.(.].k.Y ^ :.L.q.l = _ T S.{.].].f.^ c.].(.(._.(.(.(.(.(.(.(.(.(.(.(.(.(.(._.(._.",
"(.(.(.(.(.(.(.(.(.(.).(.(.(.(.(.(.F.s.T ] Q k.{.(.].z.Y ^ ;.U.e.x = Q E D.].]._.| T c.{.(.(.(.(.(.(.(.(.(.(.(.(.(.(.(.(.(.(.(._.",
"(.(.(.(.(.(.(.(.(.(.(.(.(.(.(.^.].n.Y E 4.#.k.{.(. Xx.T _ @.7.;.y @ S Y D. X]._.| Y c..X(.(.(.(.(.).(.(.(.(.(._.(.(.(.(.(._.(.(.",
"(.(.(.(.(.(.(.(.(.(.(.(.(.(.(.(.].m.E ^ 2.] s.).]./.f.[ 5.;.8.e X O + F Z.]._._.| T B. X(.(.(.(.(.(.(.(.(.(.(.(.(.(.(.(.(.(.(.(.",
"(.(.(.(.(.(.(.(.(.(.(.(.(.(.(.(.].m.E E 2.] E .. Xp.T ] >.;.,.e X O + G Q N.{._.| E ^ k.].(.(.(.(.(.(.(.(.(.(.(.(.(.(.(.(.(.(.(.",
"(.(.(.(.(.(.(.(.(.(.(.(.(.(._.(.].m.T +.>.] E ..XXs.Y ] 9.>.0.e X + + H #...m._.!.i.T } k.].(.(.(.(.(.(.(.(.(.(.(.(.(.(.(.(.(.(.",
"(.(.(.(.(.(.(.(.(.(.(.(.(.~.n.(.].m.T <.>.] ^ } M.{ G ] 0.8.A = X X + r X.[  .{..Xd.Y E ^ n.^.].(.(.(.(._.(.(.(.(.(.(.(.(.(.(.(.",
"(.(.(.(.(.(.(.(.(.(.(.(.(.!.E C.(.m.T <.>.+.' _ U E R _ 9.^ % X + X + . l E  .S. Xf.W _ E E m.^.(.(.(.(.(.(.(.(.).(.(.(.(.(.(.(.",
"(.(.(.(.(.(.(.(.(.(.(.(.W.~.Q Q D.m.C :.:.>.>.+.E F D #.:.% $ X X + O + X t Q R `.s.#.:.R ^ Y m.].(.(.(.(.(.(.(.(.(.(.(.(.(.(.(.",
"(.(.(.(.(.(.(.(.(.(.(.(.(.~.Q Y N.^.i.^ @.3.2.` +.> y $.;.+ X + + + O + . e E E | X.@.@.R R T m.].(.(.(.(.(.(.(.(.(.(.(.(.(.(.(.",
"(.(.(.(.(.(.(.(.(.(.(.W._.~.U C m..XG.Y :.5.9.4.3., y @.4.D & X O . + O s E R R Q ' 1.1.` ~ Y m.].(.W.(.(.(.(.(.(.(.(.(.(.(.(.(.",
"(.(.(.(.(.(.(.(.(._.(.(.(.^.c.c.G.].(.x.' :.5.5.0.1 p $.>.9.; X - q O X / $.^ E z G P.L.<.] W m.].(.].(.(.(.(.(.(.(.(.(.(.(.(.(.",
"(.(.(.(.).W.(.(.(.(.(.(.(.(.].G.S./.].].I [ 5.q.9., w ' :.5.< X x ] O X K >.+.] % Z L.U.@.<.W m. X).F.(.(.(.(.(.).W.(.(.(.(.(.(.",
"(.(.(.(.(.(.(.(.(.(.(.(.(.(.(.{ C z.{.^.~ ] 5.q.@.q X g t.5.; X l ^ X X K @.] @.= P T.U.@.] E m.XX(.^ Z._.(.(.(.(.(.(.(.(.(.(.(.",
"(.(.(.(.(.(.(.(.(.(.(.(.(.(.(.^.s.k..XG.{ [ 5.5.e % O h 0.5.; O % & + O *.3.+.,.= P q.<.<.X.T n.XX].H.(.(.(.(.(.(.(.(.(.(.(.(.(.",
"(.(.(.(.(.(.(.(.(.(.(.(.(.(.(..Xz.} m.!.{ @.0.e.& O + & n r.; O + O O O *.e.=.s @ > K 9.:.C v.|.(.k.(.(.(.(.(.(.(.(.(.(.(.(.(.(.",
"(.(.(.(.(.(.(.(.(.(.(.(.(.(.(.D.i.U } M.^ 3.=.b & + $ O 1 u.; O $ O + O ( t.' X + X z e.` z. X/.s.U ^.(.(.(.(.(.(.(.(.(.(.(.(.).",
"(.(.(.(.(.(.(.(.(.(.(.(.(.(.D.} _ ^ R U +.:.s O + + + O 1 =.& O + O + X ' t.=.+ + O z 0.' ). Xz.U i.(.(.(.(.(.(.(.(.(.(.(.(.(.(.",
"(.W.(.(.(.(.(.(.(.(.(.(.(.G.E R +.+.G R @.s O $ + $ + + O O + + + + O X *.t.=.+ $ O z t.1./.].j.i.].(.(.(.(.(.(.(.(.(.(.(.(.(.(.",
"(.(.(.(.(.(.W.(.(.(.(.(.(.!.~ R +.] G E $.e X + O O O + + + O + + O + O =./ % $ + O % s } '.l.Y f.XX_._._.(.(.(.(.(.(.(.(.(.(.(.",
"(.(.(.(.(.(.(.(.(.(.(.(.].!.} R [ :.` R @.' f O + A w O + + + O O + + O ;.J . $ + + X * _ |.g.Y | z._. X(.(._.(.(.(.(.(.(.(.(.(.",
"(.(.(.(.(.(.(.(.(.(.(.(.(.!.R G ] >.@.] :.9.K O $ 2.l O $ + O w , O + X *.;.d O O X - j ^ oXg.T ! *. XW.(.(._.(.(.(.(.(.(.(.(.(.",
"(.(.(.(.(.(.(.(.(.(.(.(.(.^.j.R _ :.>.5.9.e.K O $ v 2 O + + O ^ A X + O *.u.;.O e % l 8.` A.p.R ^ | Z.^.(.(.W.(.^.(.(.(.(.W.(.(.",
"(.(.(.(.(.(.(.(.(.(.(.(.(.(.(.| R +.9.@.:.e.L O + O O $ + + O A g X @ X J 9.( $ @.e s 3.>.) _ _ _ ^ ^ G._.(.(.(.(.(.(.(.(.(.(.(.",
"(.(.(.(.(.(.W.(.(.(.(.(.(.(.^.{ E l q >.& ( ' O + + + O + O O + + O X + X j ( + ^ w s 9.0.2.;.:.@.R } ~.(.(.(.(.(.(.(.(.(.(.(._.",
"(.(.(.(.(.(.(.(.(.(.(.(.(.(._.!.h.y O 1 O ; , O + + + O O + + O O + X + X & = + & O x @.w 1 ' 5.+.E ^ ~._.(.(.(.(.(.(.(.(.(.(.(.",
"(.(.(.(.(.(.(.(.(.(.(.(.].!.x.].l.i O O O O O + O + O O + O O O O X + X $ X O O O X t b O X ' 0.@.E E G._._.W.(.(.(.(.(.(.(.(.(.",
"_.(.(.(._.(.(.(.(.(.(.(._.S.Y [.g.a : + O + O O + O + + O + O & & O O O O + + O O $ O X + O ' 9.] R i.!.(.(.(.(.(.W.(.(.(.(.(.(.",
"(.(.(.(.(.W.(.(.(.(.(.(._.S.E ~.h.@.` + O + + + O $ + + + + O p g . + + + O + + $ X + $ + + ' @.R | ^._.(.(.(.(.(.(.(.(.(.(.(.(.",
"(.(.(.(.(.(.(.(.(.(.(.(._.S.E R @.9.=.+ O + + + O + O + O + p E f . + O O O + O X O X X % ^ %._ i.!.(.(.(.(.(.(.(.(.(.(.(.(.(.(.",
"(.(.(.(.(.(.(.(.(.(.(.(._.S.E ~ +.9.=.+ + O X + + O + O O O D +.f . + + O + O + X $ + X % ! X.Y p.].(.(.(.(.(.(.(.(.(.(.(.(.(.(.",
"(._.(.(.(.(.(.(.(.(.(.(._.!.j.R T <.;.+ O O O + + O + O & v R ` D w X + + + O O $ O O O @ G U i.S.(.(.(.(.(.W.(.(.(.(.(.(.(.(.(.",
"(.(.(.(.(.(.(.(.(.(.(.(.(._.(.c.I #.:.+ O + + + + O O O - _ R ] :.! - + O + O + X + O O # G  .S.].(.(.(.(.(.(.(.(.(.(.(.(.(.(.(.",
"(.(.(.(.(.(.(.(.(.(.(.(.(.(.(.XXj.+.1.O O O O + O O + O - Q E 4.9.@.H @ O O O O O O + O % H J.{.(.(.(.(.(.(.(.(.(.(.(.(.(.(.(.(.",
"(.(.(.(.(.(.(.(.(.(.(.(.(.(.(.(.(.B.F + O O O O + + + O - _ 2.9.2.[ H @ O O O $ O + O X @ V N.].(.(.(.(.(.(.(.(.(.(.(.(.(.(.(.(.",
"(.(.(.(.(.(.(.(.(.(.(.(.(.(.(.[.OXb.o $ + + $ $ + + + O 2 %.R.E.Y.q.R @ O + + + + + + + + * V.+X].(.(.(.(.(.(.(.(.(.(.(.(.(.(.(.",
"(.(.(.(.(.(.].(.(.(.(.(.(.(.(.M M 3   . . . . . X   X   @ u k m n l r X X . . X . . . . .   0 M B _.(.(.(.(.(.(.(.(.(.(.(.(.(.(.",
"(.(.(.(.(.(.(.(.(.(.(.(.(.(.W.9 6 7 0 9 8 8 8 8 9 8 8 8 9 5 5 5 5 5 5 9 8 8 8 8 9 8 8 9 8 k 5 3 M }.W.(.(.(._.(.(.(.(.(.(.(.(.(.",
"(.(.(.(.(.(.(.(.(.(.(.(.(.(.(.}.}.}.[.[.[.[.[.[.[.}.[.[.[.}.}.[.[.|.}.}.[.[.[.[.[.[.[.[.}.}.{.{.}.(.(.(.(.(.(.(.(.(.(.(.(.(.(.(.",
"(.(.(.(.(.(.(.(.(.(.(.(.(.(.(.(.(.W.(.W.W.(.(.W.(.(.^.W.W.(.(.W.(.(.W.(.(.(.(.(.(.W.(.W.(.(.(.(.(.(.(.(.(.(.(.(.(.(.(.(.(.(.(.(.",
"(.(.(.(.(.(.(.(.(.(.(.(.(.(.(.(.(.W.(.(.(.(.(.(.(.(.(.(.(.(.(.(.(._.(.W.(.(.(.(.(.(.(.(.(.(.(.(.(.(.(.(.(.(.(.(.(.(.(.(.(.(.(.(.",
"(.(.(.(.W.(.(.(.(.(.(.(.(.(.(.(.(.(.(.(.(.(.(.(.(.(.(.(.(.(.(.(.(.(.(.(.(.(.(.(.(.(.(.(.(.(.(.(.(.(.(.(.(.(._.(.(.(.(.(.(.(.(.(.",
"(.(.(.(.(.(.(.(.(.(.(.(.(.(.(.(.(.(.(.(.(.(.(.(.(.(.(.(.(.(.(.(.(.(.(.(.(.(.(.(.(.(.(.W.(.(.(.(.(.(.(.(.(.(.(.(.(.(.(.(._.(.(.(."
};
