/* XPM */
static char *floor[] = {
/* columns rows colors chars-per-pixel */
"64 64 2 1 ",
"  c #D1B3DF",
". c #D4B5E2",
/* pixels */
" ..    . ..  ..   ... ..  . ..  ...  . . .  . .  .......    ..  ",
".. .  .   . ... .  . .     .... .....    .   ..   .. ... .  . ..",
". ...   .   .....   ...    ..      ..  . ..  ..  . . .......   .",
"...     .  . . .  . ..  ...  . ..  ..... ..  .  ......  .  ..  .",
".          .     .   . . . .  ..    ....    ... .  . .     .    ",
"...        . ..   . . ....  .  ...  ..    .....  .         . .. ",
" . ....      .... . ..  . ...  ...  .  . .....  . .  .   .. .  .",
"..    .  .    ..  .  ...  . .. ...     ...      . ....    ..    ",
"   .  .  ..  .. ..     .   ....... ..... ..    .. . ..          ",
"   .  .  ..   . ...   ..    . ...... ...... . .. .    .         ",
" ... .... .  .. .. .   ...  ......  . .    .... . .    .. ..  . ",
" ... .  .   .  .     .     ...  .   ..    .  ... ..     ....... ",
"   .    ..  ..     . ...   ..           .  .    ..  .......   . ",
" ..  .  .   ..  . ..... .....   .  .   ..... .       .. .     ..",
" .......... ....    .. .    .  .      .   ..   ....       ....  ",
" .  .. ....    ..  .  .   .            ... .  . .. .      .... .",
"   . ..... . ..  .... ...  . . ........     ..      . ......... ",
"     .. .   . . .... ....   .  . ... .. ......    . . . .    .. ",
" . . . ..   .  ...  .  ..  .   .       . .   ......... ...  . . ",
"  ... . ..    .  ..  . .. ....  .     .  .  .  .  ..   . .  ..  ",
" .  ...  .  .    ..  .... ... .       . ... . ......    ..      ",
" ..  ....  ......  ..      .. ..  .  ..   . .   .     ..  . .   ",
".    .  ..  .   ...    . .  . ..   .      . .   .     ..    ....",
". ... . .   .      .          .  ...    ..  ..  .  ....  ..  ...",
"  . .     . ... ..   ..  .  .....  .    .    ..  . ..  .      ..",
".     ...    ..   ..  . .... ....  .. .   ..  .      .. ... .   ",
".. .  .. .  .       .. . .    .. . . .       . .    . .     .   ",
"  . .. .  . .....   .. . .  .... ......    .  ..  ....... . . ..",
". .   ........ ... ..  . . . .  .  ..           . ... . .....  .",
"..    .. .  .   ......   .   ...    . ..       ..     ..  .. .  ",
"..  ..  .    ...  .  .        ...    .. . ... ... .. . . .   . .",
"        .    . ..    ...  ..    .  ..  .  ..   . .. ..      ....",
"   ..    ........   .. ...  .  . .... ..  ..        ..       .  ",
" ..       ...... . .. .  ...   .. .. ..  .   . . .  .. .  ....  ",
" .         .  ..  ..   .  ..   .   . .....               .  ..  ",
" ..    .   .. .   ..  .      ...     . ..   . .  . .. .     ..  ",
" .                 . . .   .    .  .....  . .        . .    ....",
"  ....       . .    .   ... .     ..  .......        .     .  . ",
"  . . ..     . . .  ..   . ..     ...  . .   ....     .       ..",
"   . .   .     .      . . ..  .  ...   .. ..  ..    .. .    ....",
"  . . . ..  ..  .     .    . ..   .  ..  .. . ... ......   .....",
".. .. ...  . ... ...  . .   .... .. ..   . .. . .. ..      . .. ",
". .  ........ . . .  ..... ... .... ... .. .. .    ..  ..     ..",
"  ..........   ....  .... ..     .. .....   .   .   . .. . .    ",
"  . .....    ...  ..   ..           ... .            .  ......  ",
"   . . .....  .      ..      .. ...  .  .. . .    .  .. ..   ...",
".  .  .     .  .. .. .  .   ..   ..  .  ..    .  .  .    . .. ..",
"   .  .  ..  ..  ...   .... ..   ..  ..   .    .            .   ",
". ..   .   ......          ...   . ..   .  . .... . . ....   .  ",
"  .    . .    . .      .   .. . . ...  .       . .. . .... ..  .",
" .    .. .      ..   . . .             .   .        ..   . ... .",
".        ..  ... ..    .              ..  ..  ..  ..  ...    .  ",
".. .      .  ....      .      ...      .. .   .....   . ..      ",
".  . . .    ..  ...    .  .. .  ..    ..      .....          ...",
".   . . . .  .  ....      .   .. .   ..      .  . .    .    .  .",
".  . .. .  ..........     .      .    . . ...   .....   . ..  ..",
" ...  ........  .    . ..  ...   .       ....      ...   .    ..",
".   . ...  .. ..    . .. .... ...      .... .   ..  .  ..       ",
"..   .... . ...  .         . .  .... .     ..  .    .....       ",
"        ....... ... . . ..   .  ..... .    . . ....   . . .  .. ",
"  .  . . .    .   . ..   ....   ..... ...  . ...... .      .  . ",
"..    ....  ...    . ...  .  .  .. . ....... ....   .  .   ..   ",
"      .  . ..       .  .   .... . .... .   .. .  .    ..  . . . ",
" . ...   ...    .   .. .     . .. .. ....       .     .        ."
};
