/* XPM */
static char *item[] = {
/* columns rows colors chars-per-pixel */
"64 64 205 2 ",
"   c #6F0D3D",
".  c #690130",
"X  c #740335",
"o  c #73063B",
"O  c #79063C",
"+  c #740B3E",
"@  c #7A083E",
"#  c #6E113D",
"$  c #68193F",
"%  c #7E0741",
"&  c #760E40",
"*  c #7C0C42",
"=  c #751241",
"-  c #7D1245",
";  c #7D1948",
":  c #5E3C52",
">  c #652B47",
",  c #652E48",
"<  c #6A2C4A",
"1  c #692847",
"2  c #77214A",
"3  c #66344C",
"4  c #69334C",
"5  c #66394F",
"6  c #6D3B4F",
"7  c #743B4E",
"8  c #7B3C4D",
"9  c #663C50",
"0  c #6A3C50",
"q  c #723D50",
"w  c #7B414F",
"e  c #6A4051",
"r  c #8A0E38",
"t  c #D01239",
"y  c #E3163B",
"u  c #C92D37",
"i  c #D62B33",
"p  c #DD3D3F",
"a  c #DE3035",
"s  c #CD353C",
"d  c #EC282F",
"f  c #E42A33",
"g  c #EC2B33",
"h  c #EA273B",
"j  c #FB2D34",
"k  c #F52534",
"l  c #ED3A36",
"z  c #EC3B3D",
"x  c #EA3437",
"c  c #FB3535",
"v  c #F23D3D",
"b  c #FE3E3C",
"n  c #F43436",
"m  c #FE582E",
"M  c #ED423F",
"N  c #E7413D",
"B  c #FB4337",
"V  c #FF4C35",
"C  c #F1443F",
"Z  c #FE433C",
"A  c #FD4A3D",
"S  c #FE5434",
"D  c #FD5B35",
"F  c #FC523C",
"G  c #FD5C3C",
"H  c #FE613B",
"J  c #FE6B3D",
"K  c #FE713C",
"L  c #830744",
"P  c #830D45",
"I  c #8D0B4A",
"U  c #880E48",
"Y  c #930B4F",
"T  c #841245",
"R  c #8C124B",
"E  c #89164B",
"W  c #9A0E52",
"Q  c #9C1C57",
"!  c #9A1D4C",
"~  c #A20E56",
"^  c #A50F59",
"/  c #A6115A",
"(  c #AB135D",
")  c #A31357",
"_  c #B21451",
"`  c #843548",
"'  c #833C4C",
"]  c #8B3B4A",
"[  c #893748",
"{  c #933C4A",
"}  c #9B3D49",
"|  c #BC2550",
" . c #AF254C",
".. c #AE1560",
"X. c #B21662",
"o. c #B41964",
"O. c #B91A65",
"+. c #BD1C6A",
"@. c #BE216B",
"#. c #BC2867",
"$. c #CD1543",
"%. c #CC3F42",
"&. c #D73E42",
"*. c #CA225D",
"=. c #EA2B46",
"-. c #E63E41",
";. c #F33446",
":. c #EE3153",
">. c #C21D6D",
",. c #C71F65",
"<. c #C51F70",
"1. c #C52363",
"2. c #C4226F",
"3. c #CB2467",
"4. c #D0336D",
"5. c #C62470",
"6. c #CB2473",
"7. c #CD2B76",
"8. c #C62872",
"9. c #D02976",
"0. c #D52D7A",
"q. c #D82F7C",
"w. c #DB317E",
"e. c #D43B7D",
"r. c #CA3977",
"t. c #E0307F",
"y. c #E93662",
"u. c #BB4047",
"i. c #D84245",
"p. c #E44342",
"a. c #EF4A42",
"s. c #ED4343",
"d. c #F14342",
"f. c #FF4741",
"g. c #F14844",
"h. c #FC4B45",
"j. c #F6434B",
"k. c #FC4B4A",
"l. c #ED5747",
"z. c #FE5341",
"x. c #F15D4B",
"c. c #FC5A42",
"v. c #FF6640",
"b. c #FD7344",
"n. c #FE7E45",
"m. c #FD7D4B",
"M. c #FA556D",
"N. c #FE8146",
"B. c #FD8549",
"V. c #FE8B4B",
"C. c #FE904B",
"Z. c #FD9451",
"A. c #FD9954",
"S. c #FB9C59",
"D. c #FAAA5E",
"F. c #FBA159",
"G. c #FAAF61",
"H. c #F9B463",
"J. c #F9BA66",
"K. c #F7BE69",
"L. c #F9BD69",
"P. c #F7B364",
"I. c #F7C36C",
"U. c #F8C36C",
"Y. c #F9CB70",
"T. c #DE3481",
"R. c #DE3B81",
"E. c #E13582",
"W. c #E43B86",
"Q. c #E73E89",
"!. c #EB3F89",
"~. c #E93B87",
"^. c #DE5796",
"/. c #E44187",
"(. c #E64289",
"). c #EC448C",
"_. c #ED498E",
"`. c #F1468E",
"'. c #F0488F",
"]. c #F35083",
"[. c #E74E90",
"{. c #F54C93",
"}. c #F94E95",
"|. c #EE5A9A",
" X c #F65196",
".X c #FA5097",
"XX c #F6559B",
"oX c #F8559A",
"OX c #F55DA0",
"+X c #F663A5",
"@X c #F56CAA",
"#X c #F96EAF",
"$X c #F56AA5",
"%X c #F673AD",
"&X c #F47CA9",
"*X c #F57DB5",
"=X c #F774B1",
"-X c #F683AE",
";X c #F587B4",
":X c #F688B7",
">X c #F58DBA",
",X c #F987B8",
"<X c #F491BF",
"1X c #F693C3",
"2X c #FA98C8",
/* pixels */
"9 9 9 9 9 e 5 9 e 5 5 9 9 5 e 5 9 9 9 9 9 9 9 9 9 9 0 9 9 9 9 9 9 9 9 9 9 9 9 9 9 9 e 9 9 9 9 9 9 9 9 9 9 e 5 e 5 e 5 e 5 9 9 9 ",
"9 9 9 5 9 9 9 9 e 9 e 9 e : : e 9 9 9 9 9 9 9 9 9 9 : : 9 9 9 9 9 9 9 9 9 9 9 9 9 9 9 9 : e 9 9 9 9 9 9 9 9 : 5 5 : : e 9 9 e 9 ",
"9 9 9 9 9 9 9 9 5 : 9 9 9 9 5 e 9 9 9 9 9 0 9 9 9 0 } { 9 9 9 9 9 9 9 9 9 9 9 9 9 9 9 9 9 e 9 9 9 9 9 9 9 9 9 9 5 e : 5 e 5 9 9 ",
"9 9 9 9 9 9 9 9 9 e 9 9 e 9 9 9 9 9 9 9 9 9 9 5 9 0 %.n ] 8 9 9 9 9 9 9 9 9 0 9 9 9 9 9 9 9 9 9 9 9 9 e 9 e 5 9 e 5 5 e 9 : e 9 ",
"9 9 9 9 9 9 9 9 9 9 9 9 5 9 9 e 9 9 9 9 9 9 9 9 9 9 5 %.b f.{ 9 9 9 9 9 0 9 9 9 9 9 9 9 9 9 9 9 9 9 9 9 9 9 9 9 : e e 5 9 5 5 e ",
"9 9 5 9 9 9 9 9 9 9 9 e 9 9 5 : 9 9 9 9 9 9 9 9 9 9 9 5 l.b.Z ' 9 9 9 0 p.' 9 9 9 9 9 9 9 9 e 9 9 9 9 9 9 9 9 9 5 9 9 9 e : 9 9 ",
"5 9 9 9 9 e 9 9 9 9 5 9 9 e 9 9 9 9 9 9 9 0 9 9 9 9 9 7 C V.A d.q 9 9 9 i.' : 9 9 9 9 : 9 9 9 9 9 9 9 9 9 9 9 9 e 5 e 9 : e 9 9 ",
"0 9 9 9 9 5 9 5 9 9 9 9 9 : e 5 9 9 9 9 9 9 9 0 9 9 9 0 C A.V.f.-.q 9 9 : 9 9 9 9 9 9 e 9 9 9 9 e : 9 9 9 9 9 9 : e 5 9 5 5 9 9 ",
"9 9 9 9 9 9 9 9 9 9 5 5 e 5 e : 9 9 9 9 9 q &.0 9 9 9 0 d.V.V.G ;.n [ 9 0 9 9 9 9 9 9 9 9 9 e 9 : e 9 e : e 9 9 5 e : 5 e 5 e 5 ",
"9 5 e 5 9 9 9 9 9 9 : e e : 9 5 9 9 9 9 0 s.v 6 9 9 9 6 d.B.V.B.A c [ : 0 0 9 9 9 9 9 9 9 9 9 9 5 9 9 5 5 9 9 9 5 5 e 5 5 : : e ",
"9 9 9 9 9 9 9 9 9 5 9 9 9 9 9 5 9 9 9 9 q j.Z 8 : 9 7 -.b.V.V.V.f.j [ : 7 i.] 9 9 9 9 9 9 9 9 9 9 9 : 5 9 5 9 5 e 9 5 9 9 : 5 5 ",
"9 9 9 9 9 9 5 9 9 e 9 9 9 e 9 e 0 u.0 9 0 j.f.8 : 0 p.J N.V.B.B.A ' 9 9 q -.Z ' 9 9 9 9 e 9 9 9 e 5 e 9 9 e 9 9 : 5 e 9 e e 5 e ",
"5 9 9 9 9 9 9 : 9 e 9 9 9 9 9 9 9 p.8 : 7 d.' 5 9 8 d.J B.G.V.n.N 0 9 9 7 s.b ] : 9 9 9 9 9 9 0 9 9 9 9 e 5 9 9 5 e e 5 5 e : 5 ",
"e 9 9 9 5 9 9 e 9 5 e e 9 9 9 : w i.8 9 5 8 9 e 0 -.G n.V.V.n.F ' 9 9 9 p.b { 9 9 9 9 9 9 9 9 9 9 9 9 9 9 9 9 9 e 5 : e 9 9 5 e ",
"9 9 9 5 9 9 5 9 9 9 9 5 9 9 9 0 x.j.7 9 e : 5 5 u b G B.V.B.z.Z 8 : 9 u b b 8 : 0 9 9 9 9 9 9 9 9 e 9 9 9 9 5 e : 5 9 9 : e e : ",
"9 5 : e 9 : e 9 9 9 9 9 9 9 9 e v.h.7 9 9 0 5 6 k Z m.B.S.B.Z Z ' 9 0 f b b ] 9 9 9 9 9 9 9 9 9 9 9 9 9 9 9 9 5 : e 5 e 5 e 5 5 ",
"9 9 9 9 9 5 e 9 9 9 5 9 9 9 9 e x.f.;.8 : 9 9 6 g b B.V.L.Z.z.f.8 9 6 i b b.g 8 : 9 e 9 9 5 e 5 e 9 5 9 9 9 9 9 9 9 9 9 9 9 9 9 ",
"9 9 9 9 9 9 9 5 e 5 e 9 9 9 5 e x.h.m.z ` 5 9 7 g Z B.V.L.F.n.H a 7 9 7 z N.B f 7 : 9 9 9 e 3 3 3 : 9 9 9 9 9 9 9 9 9 9 9 9 9 9 ",
"5 9 9 9 5 : 9 9 9 9 9 9 9 9 5 9 w a.B.n k g 8 5 g Z B.V.J.I.Z.K S l 8 5 M N.B.b x ' 5 e e $   o @ < 9 5 9 9 9 9 9 9 9 9 9 9 9 9 ",
"e 9 9 9 e 9 9 9 9 9 9 0 6 9 e 9 5 N Z Z F B x [ g Z N.V.H.I.K.K D S l z Z n.V.V.F l 7 5 5 # 1.(._.T . + 3 9 9 9 9 9 9 9 9 9 9 9 ",
"9 9 9 9 9 9 9 9 9 9 9 0 &.' 9 9 5 w d A S.G j g c Z D N.V.H.I.N.J N.D Z f.B.H.A.D V r O r 4.}.=X2X .~ e.E , e 9 9 9 9 9 9 9 9 9 ",
"9 9 9 9 9 9 9 5 9 9 9 9 8 &.8 0 e 5 i B H A.G j c J D N.B.H.K.L.H.V.B.F b.V.J.Z.n.F t $.|.OX*X1X1X<X| *.R , e e 9 9 9 9 9 9 9 9 ",
"9 9 5 9 9 9 9 9 9 9 5 9 6 v v 8 : 5 5 N S V.D.F c K B.B.V.H.K.I.I.V.B.V.B.B.A.z.f.&.-X&X#X%X+XoXXX,X .| R , e 9 9 9 9 9 9 9 9 9 ",
"9 5 : e 5 9 9 9 9 9 9 5 6 v b 8 : 9 8 z A B.J.b.D m N.V.H.I.K.J.H.V.N.V.c.f.f.M.#X%X,XXX{.{.{.{.'..XQ @ + 4 5 5 9 9 9 9 9 9 9 9 ",
"9 9 9 9 9 9 9 9 9 9 9 : 0 i.' 9 9 9 M Z z.V.U.L.b.m n.Z.U.U.I.D.Z.n.F h.k.&X;X-XXX{.{.{.{.}.{.{.{.{._.P 3 9 9 9 9 9 9 9 9 9 9 9 ",
"9 9 5 9 9 9 9 9 5 9 9 9 9 0 9 0 9 7 M f.F P.U.U.V.V.V.H.L.H.J.c.;.h ].;X>X1XOX.X}.{.}.{.{.{.}.}.}.'.).L , 9 9 9 9 9 9 9 9 9 9 9 ",
"9 9 e : 9 9 9 9 9 9 9 9 9 9 9 0 e z Z Z v.J.U.G.Z.A.V.S.G h.j.=.-X>X>XOX.X.X{.}.{. X{.{.}.}.{.).).5...% & , 9 9 9 9 9 9 9 9 9 9 ",
"9 e 5 5 9 9 9 9 9 9 9 9 9 0 9 5 6 f Z G L.Y.U.V.B.B.A h ;.-X,X:XXX'. X'.{.{.{.{.{.{. X{.).{.8.( ..R.T.o.L , 9 9 9 9 9 9 9 9 9 9 ",
"9 9 9 9 9 9 9 9 9 e 9 9 9 9 4 P * ! x H G.P.n.S j.=.y. X;XoX{..X.X'.'.{.{.{.{.}.{..X{.).o...8._.'.{._.6.L , 9 0 9 9 9 9 9 9 9 9 ",
"9 9 9 9 9 9 9 9 9 9 9 9 9 5 * ,.3.[.t l v ;.=.:.*X,X*X{.{.{.{.{.'.{..X.X.X.X.X`.).Q.+.5.'.'.{.).0.o./ ( * 3 9 9 9 9 9 9 9 9 9 9 ",
"9 9 9 9 9 9 9 9 9 9 9 9 9 5 * O.1.1.1.t y $X+X+X{.'.{.{.{.{.{.{..X.X.X'.).).).#...o.(.{.{.Q.5...o.* & & < 9 9 9 9 9 9 9 9 9 9 9 ",
"9 9 9 9 9 9 9 9 9 9 9 9 9 & P @.|.@X%X@X).{..X'.{.{.{.{.{.{.{.}..X).`.+...X.( Q. X'.Q.6.O.o.R & & 3 5 9 9 9 9 9 9 9 9 9 9 9 9 9 ",
"9 9 9 9 9 5 9 9 9 9 : e = I ^.#X#X'. X X7.w.{.9.'.}.{.{.{. X{.'./.( X.o.).{.).{._.5.+.P & & , 9 5 9 9 9 9 5 9 9 9 9 9 9 9 9 5 9 ",
"9 9 5 9 9 9 9 9 9 9 5 5 ; !.`.W.{.`.2.).X.0.'.6.'..X}.{._.'.5...( 0.T.).{.).@./ L * * & , 9 9 9 9 9 9 9 9 9 9 9 9 9 9 9 9 9 9 9 ",
"9 9 9 9 9 9 9 9 9 9 9 5 ; (.{.0.>.).2.`.o.0.W.`.).).'.'.@.o...Q.W.0.o.( X.+.X.I   > 5 9 9 9 9 9 9 9 9 9 9 9 9 9 9 9 9 9 9 9 9 9 ",
"9 9 9 9 9 9 5 9 9 9 9 5 2 W ).T.>.W.2.t.w...w.).o.( +.>.Q.'.(.'.2.Y + @ ( _.Q.% 3 9 9 9 9 9 9 9 9 9 9 9 9 9 9 9 9 9 9 9 9 9 9 9 ",
"5 9 5 9 9 9 9 9 9 9 9 9 9 * ).'.<.E.+.0.E...( +.).`.{.'. X}.Q * % & , 9 = T /.* 3 9 9 9 9 9 9 9 9 9 9 9 9 9 9 9 9 9 9 9 9 9 9 9 ",
"e 9 9 9 9 9 9 9 9 9 9 9 5 * '. X<.X...X.X.Q.{.).{.{.{.}.'.o.^ % 1 5 9 e 3 + R.P 3 9 9 9 9 5 9 9 9 9 9 9 9 9 9 9 9 9 9 9 9 5 9 9 ",
"9 e 9 9 9 9 9 9 9 9 9 5 = / o.+.X.6.q.~.).}.}.~.q.E.E.{.O.P R.* 3 9 5 e 5 + e./ 4 9 9 9 9 9 9 9 9 9 9 9 9 9 9 9 5 9 9 5 9 9 9 9 ",
"9 5 9 9 9 9 9 9 9 9 9 5 & * Y ~ <.T.T.{.}.{.W.E.E.E.T.{.... r.T 3 9 5 3 3 T /.R , 9 9 9 9 9 9 9 9 9 9 9 9 9 9 9 9 9 9 9 9 9 5 9 ",
"5 9 e 9 9 : 5 9 9 9 9 9 9 3 & & L / R.{.{.'.W.'.{.'.T.{.o.o o r.* > 5 ; E _.7.* 3 9 9 9 9 9 9 9 9 9 : e 5 5 : e 9 9 9 9 9 9 9 9 ",
"9 9 5 5 5 e 9 9 9 9 9 9 9 9 5 9 3 * ( ).{.q.{..X{.{.E.{.X.O % O % P = R.'.).E 3 9 9 9 9 9 9 9 9 9 9 5 5 e e 5 5 9 9 9 9 9 9 9 9 ",
"9 9 9 : 5 : 9 9 9 9 9 9 9 9 9 0 3 o / ).T.0.{.{.}.}.T.{.O.7.T.P e.).(.2.X.* , 9 9 9 9 9 9 9 9 9 9 9 : 5 : 5 : 5 5 9 9 9 9 9 9 5 ",
"9 9 5 e 5 e 5 9 9 9 9 9 9 9 9 9 9 + X.).0.{. X{. X{.W.T.O.+.+.o.+.o.T = & 5 9 9 9 9 9 9 9 9 9 9 9 9 e 5 9 e e 5 9 e 9 9 9 9 9 9 ",
"5 5 5 9 e e 9 5 9 9 9 9 9 9 9 9 5 & >.T.T.{.}.}.{.T.).T.^ & & & & + , 9 9 9 9 9 9 9 9 9 9 9 9 9 5 9 5 9 e 5 9 e 5 e 9 e 9 9 9 5 ",
"e : e 9 : 5 9 9 9 9 9 9 9 9 9 3 & o.).T.'.{.{. X{.T.).X.% , 5 5 5 9 0 9 9 9 9 9 9 9 9 9 9 9 9 9 e 9 9 9 5 : : 5 e 5 : 5 5 e : e ",
": 5 5 9 e 5 9 9 9 9 9 9 9 9 9 9 & +.{.'.{. X}.}.{.E.)...& 3 9 9 9 9 9 9 9 9 9 9 9 9 9 9 9 9 9 9 9 9 9 9 5 e e 5 : 5 5 9 9 9 9 5 ",
"5 e e 5 : 9 9 9 9 9 9 9 9 9 9 3 % <.}.{.}.{.{.}.{.~.)...& 5 9 9 9 9 9 9 9 9 9 9 9 9 9 9 9 9 9 9 9 9 9 : 9 5 : 9 5 e : e 5 9 9 9 ",
"9 e : 5 5 5 e : 5 9 5 : e 9 5 = ^ ~.}.{.{.}.{.{.{.'.}...& 3 9 9 5 : 5 : e 5 9 e 9 5 5 5 e 5 e 5 9 9 9 9 : e 5 5 e : 5 5 e : 5 5 ",
"9 5 5 e : 9 5 e e 5 9 9 5 e : & >.!.{.}.{.}.}.}.}.{.0.^ & 5 9 9 e e 5 e 9 5 : 5 e : e : 9 5 : 9 9 9 9 5 5 5 e : 5 5 : e 5 e 5 e ",
"5 : 9 9 5 e 5 e 9 e : e 9 9 3 * <.{.}. X{.}.{.}.}.}...& , 9 9 9 5 5 : 5 5 e 9 9 5 9 5 e 9 e 9 9 5 9 9 9 5 e 5 e e : 5 5 e 5 e : ",
"e e 5 9 5 : e 5 9 5 5 5 9 6 # X.T.!.{.}.}.{.}.}.}.E.^ & 5 9 9 9 : e e 5 5 : 9 9 5 9 e 5 5 : 9 9 e 9 9 9 e : 5 5 5 e 5 e : e 5 5 ",
"5 9 5 e 5 9 : 5 9 9 9 9 9 5   >.!.~.{.}.}.{.{. X{.E.( & , 9 9 9 5 : 5 e 9 5 9 9 e e 5 9 5 9 9 9 9 9 5 e : 5 e : : e e 5 5 e : 5 ",
": e e 5 : 9 e 5 9 9 9 9 9 = I 9.{.~.`.}.{.}. X{.XX{.^ & 5 9 9 9 e 5 e 5 9 9 9 9 : 5 9 9 : e e 5 : 5 : e e 5 5 5 5 5 5 : 5 e e 5 ",
"5 5 9 : 5 e : e 9 9 9 9 3 o ^ t.{.!.{.{. X X X{.Q.)...% < : 9 9 5 5 : 5 9 9 9 9 5 5 5 e e 5 5 9 e : 5 5 5 5 e : e e 5 e : e 5 5 ",
"5 e 9 9 e 5 5 5 9 9 9 9 9 O O.T.'.!.{.{.{.{.T.T.T.T.o.( % 3 9 5 e : e 5 9 9 9 9 e : 9 9 5 : 9 9 5 e 5 e e : 5 e 5 : e 5 5 5 : e ",
"0 5 9 9 9 9 9 9 9 9 9 9 3 & +.E.T.T.!.T.T.T.T.T.T.T...% & 5 9 9 5 e 9 9 9 9 9 9 e 5 e 5 e 9 5 e 5 : e 5 e 5 e 5 5 e 5 e : e 5 e ",
"9 9 9 9 9 9 9 9 9 9 9 9 9 3 % X.X.0.T.T.T.T.+.X...^ &   3 9 9 9 5 : 9 9 9 9 9 9 5 5 : 5 9 9 9 9 5 e 5 5 5 5 : e 5 5 e 5 5 5 5 : ",
"9 9 9 9 9 9 9 9 9 9 9 9 9 9 1 + o ^ X...^ ^ ^ ^ ^ W & 5 9 9 9 9 5 e : 9 9 9 9 9 e : 5 5 5 5 9 9 e 9 e : e : 5 5 e e 5 5 5 : 5 e ",
"9 9 5 9 9 9 9 9 9 9 9 9 9 9 9 3 & & I W & & & & * & 3 9 9 : 9 9 e 5 5 9 9 9 9 9 5 : e : e : 9 9 5 9 5 e 5 5 : e : 5 e : 5 e 5 9 ",
"9 9 9 9 9 9 9 9 9 9 9 9 9 9 9 9 5 = & & , 9 5 5 5 5 9 9 9 9 9 9 9 9 9 9 9 9 9 9 5 e 5 e 5 : 5 e e 5 e : e 5 5 5 : e 9 5 e 5 9 9 ",
"9 5 9 9 9 9 9 9 9 9 9 9 9 9 9 9 9 5 5 5 9 9 9 9 9 9 9 9 9 9 9 9 9 9 9 9 9 9 9 9 : e 9 5 e e 9 5 : 5 e 5 5 : : e 5 5 9 e 9 9 : e ",
"9 9 9 9 9 9 9 9 9 9 9 9 9 9 9 9 9 9 9 9 9 9 9 9 9 9 : 9 : 9 9 9 9 9 9 9 9 9 9 9 5 5 : e : 5 9 : 5 : 5 9 5 e e 5 e 5 : 5 : e 5 5 ",
"9 9 9 9 9 9 9 9 9 9 9 9 9 9 9 9 9 9 9 9 9 9 9 5 9 9 9 9 9 9 9 9 9 9 9 9 9 9 9 9 : e 5 5 5 e e 5 9 e 5 9 e 5 : 9 9 9 e 5 5 5 9 e "
};
