/* XPM */
static char *player[] = {
/* columns rows colors chars-per-pixel */
"32 32 199 2 ",
"   c #4C2651",
".  c #5F3A5D",
"X  c #643F5E",
"o  c #78305F",
"O  c #7D3A47",
"+  c #752760",
"@  c #7D536C",
"#  c #714865",
"$  c #803D4D",
"%  c #943365",
"&  c #98346A",
"*  c #9E3977",
"=  c #A1326D",
"-  c #A43871",
";  c #894649",
":  c #9D544E",
">  c #8C4C59",
",  c #914656",
"<  c #934C55",
"1  c #8E505D",
"2  c #94565B",
"3  c #AD4E5F",
"4  c #A65E54",
"5  c #AE655D",
"6  c #BB7856",
"7  c #AE6C4E",
"8  c #8C4F61",
"9  c #904A64",
"0  c #8F536A",
"q  c #90556D",
"w  c #955B6C",
"e  c #9B5C6A",
"r  c #925566",
"t  c #985F79",
"y  c #955C75",
"u  c #914F74",
"i  c #AA4A65",
"p  c #B0476D",
"a  c #A45361",
"s  c #B4516B",
"d  c #B45469",
"f  c #A4437D",
"g  c #AC4479",
"h  c #B04B7F",
"j  c #BF5C7F",
"k  c #9D6374",
"l  c #9C627A",
"z  c #A06869",
"x  c #A26C7C",
"c  c #C3745E",
"v  c #C96A6E",
"b  c #CA6568",
"n  c #D57764",
"m  c #C96C71",
"M  c #CF7275",
"N  c #D47273",
"B  c #D27779",
"V  c #D16E6B",
"C  c #FA767A",
"Z  c #F07275",
"A  c #BA8558",
"S  c #C78857",
"D  c #CA9453",
"F  c #CE9953",
"G  c #CB9557",
"H  c #D19655",
"J  c #D19C55",
"K  c #D39D58",
"L  c #D7A358",
"P  c #E4AD5A",
"I  c #E8AC5C",
"U  c #F8AF5F",
"Y  c #F1B45E",
"T  c #EBB75B",
"R  c #DA8A62",
"E  c #DF9562",
"W  c #C39A70",
"Q  c #E48968",
"!  c #E49864",
"~  c #E99668",
"^  c #CBA36F",
"/  c #D0AE7D",
"(  c #DDB772",
")  c #EEA665",
"_  c #ECA564",
"`  c #FCAB6A",
"'  c #F4A865",
"]  c #F6BB62",
"[  c #F9BB61",
"{  c #F9A978",
"}  c #FFB37D",
"|  c #E3B76C",
" . c #F5C35E",
".. c #F8C55F",
"X. c #FECC5F",
"o. c #FCC561",
"O. c #FECB62",
"+. c #FDCA6D",
"@. c #FED16B",
"#. c #ECCD7F",
"$. c #FED472",
"%. c #F8D77B",
"&. c #F4CE78",
"*. c #9E4581",
"=. c #955A90",
"-. c #A54681",
";. c #A04983",
":. c #A65792",
">. c #A65088",
",. c #9E6A85",
"<. c #9F6C8A",
"1. c #A4738C",
"2. c #A26F90",
"3. c #AA7194",
"4. c #AC7BB8",
"5. c #C84884",
"6. c #CB518D",
"7. c #D5538E",
"8. c #CC5F96",
"9. c #DB5994",
"0. c #E15693",
"q. c #E35D98",
"w. c #E15B96",
"e. c #D5659A",
"r. c #CF718A",
"t. c #E4689B",
"y. c #CD6CA1",
"u. c #D477A6",
"i. c #E369A1",
"p. c #EF6AA4",
"a. c #F067A1",
"s. c #ED73AA",
"d. c #F274AC",
"f. c #FC76AD",
"g. c #FE78AF",
"h. c #EA7DB1",
"j. c #FC7BB1",
"k. c #AD80BE",
"l. c #BB93B7",
"z. c #CD8D8B",
"x. c #D0938D",
"c. c #D79C96",
"v. c #D99799",
"b. c #E78B89",
"n. c #ED9288",
"m. c #F49886",
"M. c #E19C97",
"N. c #EE9F9D",
"B. c #F89E95",
"V. c #F39B99",
"C. c #D7A29E",
"Z. c #FCA986",
"A. c #FDB383",
"S. c #ECA89B",
"D. c #FAA999",
"F. c #CB81AB",
"G. c #D881AE",
"H. c #CC9DA2",
"J. c #EF8EBF",
"K. c #FE81B6",
"L. c #FD85B9",
"P. c #F68CBA",
"I. c #FD8ABD",
"U. c #F680B4",
"Y. c #EB95BF",
"T. c #FE93BE",
"R. c #D8A7A3",
"E. c #E8A2A0",
"W. c #F5ADA5",
"Q. c #EFB3A8",
"!. c #FBB4A6",
"~. c #F5BAAC",
"^. c #FABAAC",
"/. c #F6B1A5",
"(. c #F5BEB1",
"). c #FEDE80",
"_. c #FFE58B",
"`. c #FEE187",
"'. c #FFE893",
"]. c #FEC4B3",
"[. c #AD82C0",
"{. c #BF98C1",
"}. c #BA96CC",
"|. c #C29CC4",
" X c #C297C4",
".X c #EE99C2",
"XX c #FE93C4",
"oX c #FF9BC3",
"OX c #FD9BCA",
"+X c #C5A2CA",
"@X c #C9A6CF",
"#X c #C9A5D0",
"$X c #CBA9D5",
"%X c #CEACD9",
"&X c #C7A0D0",
"*X c #CFB0DE",
"=X c #D1B2DE",
"-X c #FFA3D0",
";X c #D2B4E0",
/* pixels */
";X;X;X;X;X;X;X;X;X;X;X;X;X;X;X;X;X;X;X;X;X;X;X;X;X;X;X;X;X;X=X;X",
";X;X;X;X;X;X;X;X;X;X;X;X;X;X;X;X;X;X;X;X;X;X;X;X;X;X;X;X;X;X;X;X",
";X;X;X;X;X;X;X;X;X;X*X*X;X;X&Xy 1.*X;X*X;X;X;X;X;X;X;X;X;X;X;X;X",
";X;X;X;X;X;X;X;X;X;X@Xl <.H.<.W A 2.l.y 1.=X;X;X;X;X;X;X;X;X;X;X",
";X;X;X;X;X;X;X;X;X;X+X; A 8 ; %.( O z 7 8 =X=X=X;X;X;X;X;X;X;X;X",
";X;X;X;X;X;X;X;X;X;X{.< P ^ L O.%.c.( D r $X=X=X;X;X;X;X;X;X;X;X",
";X;X;X;X;X;X;X;X=X+X0 ; _ @.O.O.X.$.O.S O ,.=X=X;X;X;X;X;X;X;X;X",
";X;X;X;X;X;X;X;X+Xk D D 4 Z C C C C V 7 J A 1.%X;X;X;X;X;X;X;X;X",
";X;X;X;X;X;X;X$Xk G o. .L ` ` ` ` ` ' L O. .A <.;X;X;X;X;X;X;X;X",
";X;X;X;X;X;X;X+X2 )._.@.O.O.O.X.@.%.@.O.o.@.^ w *X;X;X;X;X;X;X;X",
";X;X;X;X;X;X$Xw G $.'.`.@.O.+.[ ' $.`.X.@.'.%.A ,.=X=X;X;X;X;X;X",
";X;X;X;X;X;X#X> P O.@.@.O.o.[ ~ Z.@.@.O.O.@.O.D q =X=X=X;X;X;X;X",
";X;X;X;X;X;X#X> P O.X...Y Q Q B.!.} o...X...X.D w =X;X;X;X;X;X;X",
";X;X;X;X;X;X+X2 P o.' R 5 n.B.^.]./.Q ~ ' U X.H w $X;X;X;X;X;X;X",
";X;X;X;X;X$Xw H ] ~ b n.c.Q.(.].].].S.S.n.n _ o.S ,.=X=X;X;X;X;X",
";X;X;X;X;X$X1 I A.S.v c.X 8 (.].].R.. y M.B S.} F 0 =X;X;X;X;X;X",
";X;X;X;X;X@X1 P D.W.M c.  # ~.].].H.  # M.B !.{ H q *X*X=X;X;X;X",
";X;X;X;X;X+X2 P ` m.V V.C.R.].].].].H.C.b.N m.` J w $X;X;X;X;X;X",
";X;X;X=X+Xk J T I R n b.D.~.~.~.~.^.~.r.s n _ o.o.G x @X=X;X;X;X",
";X;X=X*Xw J P 4 < , , , i b m m v M d - & s ! X.O...S l *X;X;X;X",
";X;X;X%X1 K 3 G.Y.Y..XF.o t.V././.v.-.h.XXu.d ) o.O.F 8 *X;X;X;X",
";X;X=X%Xw D 3 8.w.q.s.y.+ q.T.oXoXP.q.i.P.u.a ! )  .D l =X=X;X;X",
";X;X=X=X|.2 G i % % f =.& 9.L.I.I.j.7.& r.E.m R _ F w @X;X;X;X;X",
";X;X;X;X$Xr G E R v x.2.g q.a.p.p.a.7.p b.(.x.: ! 6 l *X;X=X;X;X",
";X;X;X;X=X+Xz S ~ n g g s.L.K.XXP.L.XXe.6.E.z.: 6 l #X;X;X;X;X;X",
";X;X;X;X;X;X Xe c - 9.s.I.XXL.XXXXL.-XoXy.- s 7 k #X;X;X;X;X;X;X",
";X;X;X;X;X;X;X X9 = q.XXXXK.L.XXXXj.T.oXU.6.% l #X;X;X;X;X;X;X;X",
";X;X;X;X;X;X;X;X Xf i.d.d.g.g.g.j.g.d.s.U.8.>.#X;X;X;X;X;X;X;X;X",
";X;X;X;X;X;X;X;X&X*.* = 5.0.0.0.0.0.9.h * * :.%X;X;X;X;X;X;X;X;X",
";X;X;X;X;X;X;X*X}.k.4.*.-.-.-.g -.-.-.- :.k.k.+X=X;X;X;X;X;X;X;X",
";X;X;X;X;X;X;X;X=X=X=X%X%X%X%X%X%X%X%X%X*X*X*X=X;X;X;X;X;X;X;X;X",
"*X;X;X;X;X;X;X;X;X;X;X;X;X;X;X;X;X;X;X;X;X;X;X;X;X;X;X*X;X;X;X;X"
};
