/* XPM */
static char *wall[] = {
/* columns rows colors chars-per-pixel */
"64 64 9 1 ",
"  c #EE88B0",
". c #FBAAC4",
"X c #DB689D",
"o c #AB538B",
"O c #EF90B4",
"+ c #A65088",
"@ c #F8A4C0",
"# c #E077A5",
"$ c #B95C91",
/* pixels */
"o+o+oooooooooooooo++o+oooooooooooooooo+++oooooooooooooooooooooo+",
"o++++++++++++++++++o+++++++++++++++++++++++++++++++++++++++++o++",
"oo+o    OO#### OO#oo+o#####O     OO OO##OOOOOO####OOO    ###ooo+",
"o++$......OOO ...@o+oo  OOO...........OO......OOOO........O o+oo",
"ooX#....OOO OO@..@ #oo  @O@@......OOOO@@@.....@@@@.......@  X$oo",
"+o O...@   O........oo O@.........O   @.............@.@...O #Xoo",
"+o  O OO O O......O oo  @.....OOOO    OO@.......OOOO@...OO  XX+o",
"+o         O@....@O oo O@.....O         @.@.....O   @.@.O   XXo+",
"+o      @@@@....OO  oo  @..@OO         O@..@.@OO    OOOO    XX+o",
"+o      ........O   oo  @..@         O  @.....O             XXoo",
"+o    @@......OO    ooX#OO.@        @@@@....OO            ##XXo+",
"oo   O........O     ooXX O..O       @.......O             XXXXo+",
"+oX# O@.....OO      ooXX  OO      @@@.....OO    O     ###XXXXX++",
"ooXX O......        ooXX         O@...@...O           XXXXXXXXoo",
"ooXX  OO@..@O     #XooXXX#     O@@........O    O O@@@@@@  # XXoo",
"+oXX    @...      XXooXXXX      ..........O       @....@    XXo+",
"ooXX##  OOOO    #XXXooXXXXX#X# O@...OOOOOOO     @@...@.@O   XXo+",
"+oXXXX          XXXXooXXXXXXXX O....O         O @......@O   #Xo+",
"ooo$XX      ###XXX$$oo$$XXXXXX##OOOO          ####OOOOOO  ##$oo+",
"ooooXX      XXXXXXo+oo+oXXXXXXXX              XXXX        XXo+oo",
"o+oo$$$$$$$$$$$$$$oooooo$$$$$$$$$$$$$$$$$$$$$$$$$$$$$$$$$$$$oooo",
"o+o++++++++++++++++++++++++++++++++++o+o+++++++++++++++++++++o+o",
"oo+$OOOOOOOOOO####OOOO######OOOO##XXo+oo OOOOOOO#######O  ##oooo",
"o++$..........OO O....O O OO....O XX$+++@.......O  OOO@...O o+oo",
"oo#O@...OOOOOOO   OO@OOO@@@@@..@O ##$+#O@.OOOOOO      @...O ##oo",
"oo@.....O  O O          ........    $+O...O           @...O   o+",
"+o@@OOOO  OO@@@@O    O@@......OO    $+#OOO          @@@..@@@#Xo+",
"oo@@       O@...O    O........O     $+#             @.@.....#Xo+",
"+o O     O@@...@O    O..@.....O     $+#      O@@@@@@@@....OO#Xoo",
"oo        @.....     O@....@..O     $+#       @...........O XXoo",
"+o    @@@@....OO     O@.@.OOO     ##o+X#    @@....@.@...O   XXo+",
"oo   O........O       ....O       XXo+XX    @...........O   XXo+",
"+oX#  @.....OO     O@@..O         XXo+XX    @...@.OO@...O   #Xo+",
"ooXX O..@@..O      O@..@O         XXo+XX    @.@...O @...O   XXoo",
"+oXX  OO@@OOO     @@....O     #X#XXXo+XX    @...OO  OOOO  #XXX+o",
"+oXX    @.O       @.@..@O     XXXXXXo+XX    @.@.O         XXXXoo",
"+oXXXX   O        @@OOOO    #XXXXX$$o+XXXX   OOO#X      XXXXXX+o",
"ooXXXX#           @@        XXXXXXo+o+XXXX#     XX      XXXXXXo+",
"ooo$XXX#XXX##X    OO    X###XX$$$ooo+oo$XXXXXX# #X#X#XXXXXXX$ooo",
"+o+oXXXXXXXXXX#         XXXXXXo++o+oooooXXXXXX O#XXXXXXXXXXX$+o+",
"oooo$$$$$$$$$$$$$$$$$$$$$$$$$$ooooo+o+oo$$$$$$$$$$$$$$$$$$$$oooo",
"o++++++++++++++++++++++++++++++++++++++o+++++++++++++++++++++o+o",
"oo+$OOOOOO##OOOOOO############OOOOOO##XXo+######OOOOO ######o+++",
"o++$......OO......O OOOOOOOOOO......O #Xo+ OOOOO......O   O o+oo",
"oo O@@OOOO  OOOO.@      @@@@@@@.OOOOO   $+#O@@@@@..@OO      XX+o",
"+o...@          @.     O@.......        $+#O@......@        XXoo",
"+o@@O         @@OO    @@@.....OO        o+#O@......@        XXo+",
"oo@@     O  O @.     O....@..@O         $+#O@......@        XXoo",
"+o O       O@@@.@@    ...@..OO        #Xo+O@....@.@@      XXXXo+",
"oo          @....@   O@....@O         XXo+O.@.....@@      XXXXo+",
"oo      @@@@@@.@@@     O@...O       XXXX$+#O@..@..O       XXXXo+",
"oo#     @....@...@     O....        XXXXo+# @.@.@@O       XXXXoo",
"+o   O@@...@.....@      OOOO      ##XXXXo+#  O@@O       #X  XXoo",
"oo   O..@......@@@             OO XXXXXXo+#   @@        #X  XXoo",
"+oX# O....@.@.OOO      O      @.@@    XXo+X#        XXXXXX  XXoo",
"ooXX O..@...@@O              O@..@    #Xo+XX        #XXXXX  #Xoo",
"ooXX   O@..@O     #X        @@....    XXo+XX    XXXXXX      XXoo",
"ooXX    @@.@      XX       O@.....    XX$+XX    XXXXXX      XXo+",
"ooXXXXXX OO   #XXXXXX#XX##  OOOOOO  XXXXo+XXXXXXXXXXXX#   #X$ooo",
"+oXXXXXX#     XXXXXXXXXXXX          XXXX$+XXXXXXXXXXXX    XX$+oo",
"ooo$XXXX#XXXXXXXXXXXXXXXXXXXXX    XXXX$oooo$XXXXXXXXXXXXXXXX$+oo",
"oo+oXXXXXXXXXXXXXXXXXXXXXXXXXX#   XXXXo+ooo+XXXXXXXXXXXXXXXXo+oo",
"oooo++++oo++o++o++o++++++++++ooooo++++oooo+o+o++++oo+oo+oo+ooooo",
"+o+o+o++++o++o+++++o+o+++o+++++o++o+ooo+o++++++o+o++++++++o++ooo"
};
